<svg width="544" height="38" viewBox="0 0 544 38" fill="none" xmlns="http://www.w3.org/2000/svg">
<path d="M20.5133 20.3334H17.6933L18.7067 17.04C18.92 16.3534 18.36 15.6667 17.5867 15.6667C17.2 15.6667 16.8267 15.8267 16.5733 16.1L12.6667 20.3334H10V27H12.6667H13.3333H19.62C20.3267 27 20.94 26.5534 21.08 25.9267L21.9733 21.9267C22.1533 21.1 21.4533 20.3334 20.5133 20.3334ZM12.6667 26.3334H10.6667V21H12.6667V26.3334ZM21.32 21.78L20.4267 25.78C20.36 26.1 20.02 26.3334 19.62 26.3334H13.3333V20.5934L17.0667 16.5534C17.1933 16.4134 17.3867 16.3334 17.5867 16.3334C17.76 16.3334 17.92 16.4067 18.0067 16.5334C18.0533 16.6 18.1067 16.7067 18.0667 16.8467L17.0533 20.14L16.7867 21H17.6867H20.5067C20.78 21 21.04 21.1134 21.1933 21.3067C21.28 21.4067 21.3667 21.5734 21.32 21.78Z" fill="white"/>
<path d="M34.2852 20.207H35.0996C35.6113 20.1992 36.0137 20.0645 36.3066 19.8027C36.5996 19.541 36.7461 19.1875 36.7461 18.7422C36.7461 17.7422 36.248 17.2422 35.252 17.2422C34.7832 17.2422 34.4082 17.377 34.127 17.6465C33.8496 17.9121 33.7109 18.2656 33.7109 18.707H32.627C32.627 18.0312 32.873 17.4707 33.3652 17.0254C33.8613 16.5762 34.4902 16.3516 35.252 16.3516C36.0566 16.3516 36.6875 16.5645 37.1445 16.9902C37.6016 17.416 37.8301 18.0078 37.8301 18.7656C37.8301 19.1367 37.709 19.4961 37.4668 19.8438C37.2285 20.1914 36.9023 20.4512 36.4883 20.623C36.957 20.7715 37.3184 21.0176 37.5723 21.3613C37.8301 21.7051 37.959 22.125 37.959 22.6211C37.959 23.3867 37.709 23.9941 37.209 24.4434C36.709 24.8926 36.0586 25.1172 35.2578 25.1172C34.457 25.1172 33.8047 24.9004 33.3008 24.4668C32.8008 24.0332 32.5508 23.4609 32.5508 22.75H33.6406C33.6406 23.1992 33.7871 23.5586 34.0801 23.8281C34.373 24.0977 34.7656 24.2324 35.2578 24.2324C35.7812 24.2324 36.1816 24.0957 36.459 23.8223C36.7363 23.5488 36.875 23.1562 36.875 22.6445C36.875 22.1484 36.7227 21.7676 36.418 21.502C36.1133 21.2363 35.6738 21.0996 35.0996 21.0918H34.2852V20.207Z" fill="#AAAAAA"/>
<path d="M66.3335 15.6667H65.6669H59.3802C58.6669 15.6667 58.0602 16.1134 57.9202 16.74L57.0269 20.74C56.8469 21.5667 57.5469 22.3334 58.4869 22.3334H61.3069L60.2935 25.6267C60.0802 26.3134 60.6402 27 61.4135 27C61.8002 27 62.1735 26.84 62.4269 26.5667L66.3335 22.3334H69.0002V15.6667H66.3335ZM61.9335 26.1134C61.8069 26.2534 61.6135 26.3334 61.4135 26.3334C61.2402 26.3334 61.0802 26.26 60.9935 26.1334C60.9469 26.0667 60.8935 25.96 60.9335 25.82L61.9469 22.5267L62.2135 21.6667H61.3069H58.4869C58.2135 21.6667 57.9535 21.5534 57.8002 21.36C57.7202 21.26 57.6335 21.0934 57.6802 20.88L58.5735 16.88C58.6402 16.5667 58.9802 16.3334 59.3802 16.3334H65.6669V22.0734L61.9335 26.1134ZM68.3335 21.6667H66.3335V16.3334H68.3335V21.6667Z" fill="white"/>
<path d="M99.1191 21.5488H97.1152V25H95.9844V16.4688H98.8086C99.7695 16.4688 100.508 16.6875 101.023 17.125C101.543 17.5625 101.803 18.1992 101.803 19.0352C101.803 19.5664 101.658 20.0293 101.369 20.4238C101.084 20.8184 100.686 21.1133 100.174 21.3086L102.178 24.9297V25H100.971L99.1191 21.5488ZM97.1152 20.6289H98.8438C99.4023 20.6289 99.8457 20.4844 100.174 20.1953C100.506 19.9062 100.672 19.5195 100.672 19.0352C100.672 18.5078 100.514 18.1035 100.197 17.8223C99.8848 17.541 99.4316 17.3984 98.8379 17.3945H97.1152V20.6289ZM108.207 21.0566H104.51V24.0801H108.805V25H103.385V16.4688H108.746V17.3945H104.51V20.1367H108.207V21.0566ZM111.33 21.6602V25H110.205V16.4688H113.352C114.285 16.4688 115.016 16.707 115.543 17.1836C116.074 17.6602 116.34 18.291 116.34 19.0762C116.34 19.9043 116.08 20.543 115.561 20.9922C115.045 21.4375 114.305 21.6602 113.34 21.6602H111.33ZM111.33 20.7402H113.352C113.953 20.7402 114.414 20.5996 114.734 20.3184C115.055 20.0332 115.215 19.623 115.215 19.0879C115.215 18.5801 115.055 18.1738 114.734 17.8691C114.414 17.5645 113.975 17.4062 113.416 17.3945H111.33V20.7402ZM118.906 24.0801H122.949V25H117.775V16.4688H118.906V24.0801ZM125.428 20.752L127.654 16.4688H128.932L125.99 21.8184V25H124.865V21.8184L121.924 16.4688H123.213L125.428 20.752Z" fill="#AAAAAA"/>
</svg>
